<mxfile host="Electron" modified="2024-02-02T07:00:22.308Z" agent="Mozilla/5.0 (Windows NT 10.0; Win64; x64) AppleWebKit/537.36 (KHTML, like Gecko) draw.io/23.0.2 Chrome/120.0.6099.109 Electron/28.1.0 Safari/537.36" etag="hUr9JLCwH6zj3U6E8v94" version="23.0.2" type="device">
  <diagram name="Page-1" id="HikZZA9tcYNnvdCEv3ph">
    <mxGraphModel dx="864" dy="508" grid="1" gridSize="10" guides="1" tooltips="1" connect="1" arrows="1" fold="1" page="1" pageScale="1" pageWidth="850" pageHeight="1100" math="0" shadow="0">
      <root>
        <mxCell id="0" />
        <mxCell id="1" parent="0" />
        <mxCell id="daV-fuMDEPuzpnP19af6-1" value="" style="ellipse;whiteSpace=wrap;html=1;" vertex="1" parent="1">
          <mxGeometry x="30" y="20" width="110" height="60" as="geometry" />
        </mxCell>
        <mxCell id="daV-fuMDEPuzpnP19af6-2" value="START" style="text;html=1;strokeColor=none;fillColor=none;align=center;verticalAlign=middle;whiteSpace=wrap;rounded=0;" vertex="1" parent="1">
          <mxGeometry x="55" y="35" width="60" height="30" as="geometry" />
        </mxCell>
        <mxCell id="daV-fuMDEPuzpnP19af6-3" value="" style="ellipse;whiteSpace=wrap;html=1;" vertex="1" parent="1">
          <mxGeometry x="30" y="140" width="110" height="60" as="geometry" />
        </mxCell>
        <mxCell id="daV-fuMDEPuzpnP19af6-4" value="WELCOME" style="text;html=1;strokeColor=none;fillColor=none;align=center;verticalAlign=middle;whiteSpace=wrap;rounded=0;" vertex="1" parent="1">
          <mxGeometry x="55" y="155" width="60" height="30" as="geometry" />
        </mxCell>
        <mxCell id="daV-fuMDEPuzpnP19af6-5" value="" style="ellipse;whiteSpace=wrap;html=1;" vertex="1" parent="1">
          <mxGeometry x="30" y="250" width="110" height="60" as="geometry" />
        </mxCell>
        <mxCell id="daV-fuMDEPuzpnP19af6-6" value="" style="ellipse;whiteSpace=wrap;html=1;" vertex="1" parent="1">
          <mxGeometry x="30" y="395" width="110" height="60" as="geometry" />
        </mxCell>
        <mxCell id="daV-fuMDEPuzpnP19af6-7" value="MAIN MENU" style="text;html=1;strokeColor=none;fillColor=none;align=center;verticalAlign=middle;whiteSpace=wrap;rounded=0;" vertex="1" parent="1">
          <mxGeometry x="55" y="265" width="60" height="30" as="geometry" />
        </mxCell>
        <mxCell id="daV-fuMDEPuzpnP19af6-8" value="INSERT&lt;br&gt;DETAILS" style="text;html=1;strokeColor=none;fillColor=none;align=center;verticalAlign=middle;whiteSpace=wrap;rounded=0;" vertex="1" parent="1">
          <mxGeometry x="55" y="410" width="60" height="30" as="geometry" />
        </mxCell>
        <mxCell id="daV-fuMDEPuzpnP19af6-14" value="" style="rhombus;whiteSpace=wrap;html=1;" vertex="1" parent="1">
          <mxGeometry x="245" y="380" width="110" height="90" as="geometry" />
        </mxCell>
        <mxCell id="daV-fuMDEPuzpnP19af6-16" value="DEDUCTION&lt;br&gt;SETTINGS" style="text;html=1;strokeColor=none;fillColor=none;align=center;verticalAlign=middle;whiteSpace=wrap;rounded=0;" vertex="1" parent="1">
          <mxGeometry x="270" y="410" width="60" height="30" as="geometry" />
        </mxCell>
        <mxCell id="daV-fuMDEPuzpnP19af6-18" value="" style="ellipse;whiteSpace=wrap;html=1;" vertex="1" parent="1">
          <mxGeometry x="420" y="395" width="110" height="60" as="geometry" />
        </mxCell>
        <mxCell id="daV-fuMDEPuzpnP19af6-19" value="PAYSLIP" style="text;html=1;strokeColor=none;fillColor=none;align=center;verticalAlign=middle;whiteSpace=wrap;rounded=0;" vertex="1" parent="1">
          <mxGeometry x="445" y="410" width="60" height="30" as="geometry" />
        </mxCell>
        <mxCell id="daV-fuMDEPuzpnP19af6-20" value="" style="ellipse;whiteSpace=wrap;html=1;" vertex="1" parent="1">
          <mxGeometry x="635" y="395" width="110" height="60" as="geometry" />
        </mxCell>
        <mxCell id="daV-fuMDEPuzpnP19af6-21" value="EXIT" style="text;html=1;strokeColor=none;fillColor=none;align=center;verticalAlign=middle;whiteSpace=wrap;rounded=0;" vertex="1" parent="1">
          <mxGeometry x="660" y="410" width="60" height="30" as="geometry" />
        </mxCell>
        <mxCell id="daV-fuMDEPuzpnP19af6-24" value="" style="endArrow=classic;html=1;rounded=0;exitX=0.5;exitY=1;exitDx=0;exitDy=0;entryX=0.5;entryY=0;entryDx=0;entryDy=0;" edge="1" parent="1" source="daV-fuMDEPuzpnP19af6-1" target="daV-fuMDEPuzpnP19af6-3">
          <mxGeometry width="50" height="50" relative="1" as="geometry">
            <mxPoint x="115" y="120" as="sourcePoint" />
            <mxPoint x="165" y="70" as="targetPoint" />
          </mxGeometry>
        </mxCell>
        <mxCell id="daV-fuMDEPuzpnP19af6-25" value="" style="endArrow=classic;html=1;rounded=0;exitX=0.5;exitY=1;exitDx=0;exitDy=0;entryX=0.5;entryY=0;entryDx=0;entryDy=0;" edge="1" parent="1" source="daV-fuMDEPuzpnP19af6-3" target="daV-fuMDEPuzpnP19af6-5">
          <mxGeometry width="50" height="50" relative="1" as="geometry">
            <mxPoint x="140" y="220" as="sourcePoint" />
            <mxPoint x="190" y="170" as="targetPoint" />
          </mxGeometry>
        </mxCell>
        <mxCell id="daV-fuMDEPuzpnP19af6-26" value="" style="endArrow=classic;html=1;rounded=0;exitX=0.5;exitY=1;exitDx=0;exitDy=0;entryX=0.5;entryY=0;entryDx=0;entryDy=0;" edge="1" parent="1" source="daV-fuMDEPuzpnP19af6-5" target="daV-fuMDEPuzpnP19af6-6">
          <mxGeometry width="50" height="50" relative="1" as="geometry">
            <mxPoint x="115" y="370" as="sourcePoint" />
            <mxPoint x="165" y="320" as="targetPoint" />
          </mxGeometry>
        </mxCell>
        <mxCell id="daV-fuMDEPuzpnP19af6-27" value="" style="endArrow=classic;html=1;rounded=0;exitX=1;exitY=0.5;exitDx=0;exitDy=0;entryX=0;entryY=0.5;entryDx=0;entryDy=0;" edge="1" parent="1" source="daV-fuMDEPuzpnP19af6-6" target="daV-fuMDEPuzpnP19af6-14">
          <mxGeometry width="50" height="50" relative="1" as="geometry">
            <mxPoint x="160" y="445" as="sourcePoint" />
            <mxPoint x="210" y="395" as="targetPoint" />
          </mxGeometry>
        </mxCell>
        <mxCell id="daV-fuMDEPuzpnP19af6-28" value="" style="endArrow=classic;html=1;rounded=0;exitX=1;exitY=0.5;exitDx=0;exitDy=0;entryX=0;entryY=0.5;entryDx=0;entryDy=0;" edge="1" parent="1" source="daV-fuMDEPuzpnP19af6-14" target="daV-fuMDEPuzpnP19af6-18">
          <mxGeometry width="50" height="50" relative="1" as="geometry">
            <mxPoint x="360" y="445" as="sourcePoint" />
            <mxPoint x="410" y="395" as="targetPoint" />
          </mxGeometry>
        </mxCell>
        <mxCell id="daV-fuMDEPuzpnP19af6-29" value="" style="endArrow=classic;html=1;rounded=0;exitX=1;exitY=0.5;exitDx=0;exitDy=0;entryX=0;entryY=0.5;entryDx=0;entryDy=0;" edge="1" parent="1" source="daV-fuMDEPuzpnP19af6-18" target="daV-fuMDEPuzpnP19af6-20">
          <mxGeometry width="50" height="50" relative="1" as="geometry">
            <mxPoint x="570" y="440" as="sourcePoint" />
            <mxPoint x="620" y="390" as="targetPoint" />
          </mxGeometry>
        </mxCell>
      </root>
    </mxGraphModel>
  </diagram>
</mxfile>
